<svg width="512" height="512" viewBox="0 0 512 512" fill="none" xmlns="http://www.w3.org/2000/svg">
<path d="M16 72V376H336C336 353.92 353.92 336 376 336C398.08 336 416 353.92 416 376H448V72H16Z" fill="#EDEDED"/>
<path d="M48 280H80V344H48V280Z" fill="#FFD400"/>
<path d="M112 296H144V344H112V296Z" fill="#FFD400"/>
<path d="M176 232H208V344H176V232Z" fill="#FFD400"/>
<path d="M272 264V316.16C267.04 324.8 263.04 334.16 260.32 344H240V264H272Z" fill="#FFD400"/>
<path d="M376 304C336.24 304 304 336.24 304 376C304 389.12 307.52 401.44 313.68 412C326.08 433.52 349.36 448 376 448C402.64 448 425.92 433.52 438.32 412C444.48 401.44 448 389.12 448 376C448 336.24 415.76 304 376 304ZM376 416C353.92 416 336 398.08 336 376C336 353.92 353.92 336 376 336C398.08 336 416 353.92 416 376C416 398.08 398.08 416 376 416Z" fill="#CCD1D9"/>
<path d="M438.318 412L479.918 436C459.118 471.84 420.398 496 375.998 496C331.598 496 292.878 471.84 272.078 436L313.678 412C326.078 433.52 349.358 448 375.998 448C402.638 448 425.918 433.52 438.318 412Z" fill="#FFD400"/>
<path d="M496 376C496 397.84 490.16 418.4 479.92 436L438.32 412C444.48 401.44 448 389.12 448 376C448 336.24 415.76 304 376 304V256C403.04 256 428 264.96 448 280C477.12 301.92 496 336.8 496 376Z" fill="#FF7816"/>
<path d="M376 256V304C336.24 304 304 336.24 304 376C304 389.12 307.52 401.44 313.68 412L272.08 436C261.84 418.4 256 397.84 256 376C256 364.96 257.52 354.16 260.32 344C263.04 334.16 267.04 324.8 272 316.16C292.72 280.16 331.6 256 376 256Z" fill="#2FD0A4"/>
<path d="M235.28 180.72C238.24 183.6 240 187.6 240 192C240 200.8 232.8 208 224 208C215.2 208 208 200.8 208 192C208 183.2 215.2 176 224 176C228.4 176 232.4 177.76 235.28 180.72Z" fill="#FF7816"/>
<path d="M307.28 131.28C304.4 134.24 300.4 136 296 136C291.6 136 287.6 134.24 284.72 131.28C281.76 128.4 280 124.4 280 120C280 111.2 287.2 104 296 104C304.8 104 312 111.2 312 120C312 124.4 310.24 128.4 307.28 131.28Z" fill="#FF7816"/>
<path d="M355.28 156.72C358.24 159.6 360 163.6 360 168C360 176.8 352.8 184 344 184C335.2 184 328 176.8 328 168C328 163.6 329.76 159.6 332.72 156.72C335.6 153.76 339.6 152 344 152C348.4 152 352.4 153.76 355.28 156.72Z" fill="#FF7816"/>
<path d="M448 16C474.48 16 496 37.52 496 64C496 90.48 474.48 112 448 112C434.72 112 422.72 106.64 414.08 97.92C407.2 91.04 402.4 82.08 400.72 72C400.24 69.44 400 66.72 400 64C400 37.52 421.52 16 448 16V16Z" fill="#FF7816"/>
<path d="M456 276.24V119.36C483.096 115.456 504 92.152 504 64C504 33.128 478.88 8 448 8C417.12 8 392 33.128 392 64H8V384H248.408C252.568 450.848 308.128 504 376 504C446.576 504 504 446.576 504 376C504 335.688 485.224 299.72 456 276.24ZM448 24C470.056 24 488 41.944 488 64C488 86.056 470.056 104 448 104C425.944 104 408 86.056 408 64C408 41.944 425.944 24 448 24ZM24 80H394.36C396.272 86.384 399.312 92.264 403.216 97.48L354.288 146.408C351.152 144.904 347.696 144 344 144C340.304 144 336.848 144.904 333.72 146.408L317.6 130.288C319.096 127.152 320 123.696 320 120C320 106.768 309.232 96 296 96C282.768 96 272 106.768 272 120C272 123.696 272.904 127.152 274.408 130.28L234.288 170.4C231.152 168.904 227.696 168 224 168C210.768 168 200 178.768 200 192C200 205.232 210.768 216 224 216C237.232 216 248 205.232 248 192C248 188.304 247.096 184.848 245.592 181.72L285.712 141.6C288.848 143.096 292.304 144 296 144C299.696 144 303.152 143.096 306.28 141.592L322.4 157.712C320.904 160.848 320 164.304 320 168C320 181.232 330.768 192 344 192C357.232 192 368 181.232 368 168C368 164.304 367.096 160.848 365.592 157.72L414.528 108.792C421.848 114.28 430.536 118 440 119.368V265.328C421.144 254.376 399.328 248 376 248C337.76 248 303.472 264.944 280 291.624V256H232V352H250.336C249.344 357.224 248.744 362.576 248.408 368H24V80ZM344 160C348.408 160 352 163.584 352 168C352 172.416 348.408 176 344 176C339.592 176 336 172.416 336 168C336 163.584 339.592 160 344 160ZM288 120C288 115.584 291.592 112 296 112C300.408 112 304 115.584 304 120C304 124.416 300.408 128 296 128C291.592 128 288 124.416 288 120ZM232 192C232 196.416 228.408 200 224 200C219.592 200 216 196.416 216 192C216 187.584 219.592 184 224 184C228.408 184 232 187.584 232 192ZM376 440C340.712 440 312 411.288 312 376C312 340.712 340.712 312 376 312C411.288 312 440 340.712 440 376C440 411.288 411.288 440 376 440ZM264 314.168C260.168 321.08 257 328.384 254.488 336H248V272H264V314.168ZM368 264.408V296.408C327.632 300.44 296 334.592 296 376C296 387.704 298.592 398.8 303.128 408.832L275.376 424.856C268.16 410.072 264 393.528 264 376C264 316.944 309.976 268.536 368 264.408ZM376 488C337.488 488 303.456 468.456 283.296 438.76L311.16 422.672C325.704 442.816 349.312 456 376 456C402.688 456 426.296 442.816 440.84 422.672L468.704 438.76C448.544 468.456 414.512 488 376 488ZM476.624 424.856L448.872 408.832C453.408 398.8 456 387.704 456 376C456 334.592 424.368 300.432 384 296.408V264.408C442.024 268.536 488 316.944 488 376C488 393.528 483.84 410.072 476.624 424.856Z" fill="#424242"/>
<path d="M376 328C349.528 328 328 349.528 328 376C328 402.472 349.528 424 376 424C402.472 424 424 402.472 424 376C424 349.528 402.472 328 376 328ZM376 408C358.352 408 344 393.648 344 376C344 358.352 358.352 344 376 344C393.648 344 408 358.352 408 376C408 393.648 393.648 408 376 408Z" fill="#424242"/>
<path d="M40 96H56V112H40V96Z" fill="#424242"/>
<path d="M72 96H184V112H72V96Z" fill="#424242"/>
<path d="M40 128H56V144H40V128Z" fill="#424242"/>
<path d="M72 128H184V144H72V128Z" fill="#424242"/>
<path d="M40 160H56V176H40V160Z" fill="#424242"/>
<path d="M72 160H184V176H72V160Z" fill="#424242"/>
<path d="M40 192H56V208H40V192Z" fill="#424242"/>
<path d="M72 192H184V208H72V192Z" fill="#424242"/>
<path d="M40 352H88V272H40V352ZM56 288H72V336H56V288Z" fill="#424242"/>
<path d="M104 352H152V288H104V352ZM120 304H136V336H120V304Z" fill="#424242"/>
<path d="M168 352H216V224H168V352ZM184 240H200V336H184V240Z" fill="#424242"/>
</svg>
