<svg width="512" height="512" viewBox="0 0 512 512" fill="none" xmlns="http://www.w3.org/2000/svg">
<g clip-path="url(#clip0)">
<path d="M240.001 408C258.593 407.998 276.463 400.805 289.87 387.924C303.277 375.044 311.182 357.477 311.928 338.9L309.139 338.393C305.452 337.723 302.117 335.779 299.716 332.902C297.315 330.024 296 326.395 296.001 322.647V272H184.001V322.647C184.001 326.394 182.686 330.022 180.285 332.899C177.884 335.776 174.55 337.719 170.863 338.389L168.074 338.896C168.82 357.473 176.724 375.042 190.131 387.923C203.538 400.804 221.409 407.998 240.001 408V408Z" fill="#FAC7B7"/>
<path d="M412.88 357.251L311.927 338.9C311.18 357.477 303.276 375.045 289.869 387.925C276.462 400.805 258.592 407.999 240 408V408C221.408 407.999 203.538 400.805 190.131 387.925C176.724 375.045 168.82 357.477 168.073 338.9L67.12 357.251C50.5306 360.268 35.5259 369.011 24.722 381.956C13.918 394.901 8.00014 411.228 8 428.089V512H472V428.089C472 411.228 466.082 394.901 455.278 381.956C444.474 369.011 429.469 360.268 412.88 357.251V357.251Z" fill="#2FD0A4"/>
<path d="M412.88 357.251L398.035 354.551C335.474 440.281 234.254 496 120 496C81.8892 496.033 44.0386 489.723 8 477.327V512H472V428.089C472 411.227 466.082 394.901 455.278 381.955C444.474 369.01 429.469 360.267 412.88 357.251V357.251Z" fill="#43BAAD"/>
<path d="M168.001 104L196.032 122.687C209.053 131.368 224.352 136 240.001 136C255.65 136 270.949 131.368 283.97 122.687L312.001 104C312.001 104 346.582 109.769 357.037 135.978C363.252 68.251 309.891 8 240.001 8C170.111 8 116.75 68.251 122.965 135.978C133.42 109.769 168.001 104 168.001 104Z" fill="#525252"/>
<path d="M351.224 168L355.102 149.071C355.987 144.746 356.632 140.375 357.034 135.978C346.579 109.769 311.998 104 311.998 104L283.967 122.687C270.947 131.368 255.648 136 239.998 136C224.349 136 209.05 131.368 196.029 122.687L167.998 104C167.998 104 133.417 109.769 122.962 135.978C123.365 140.375 124.01 144.746 124.894 149.071L128.772 168C125.833 168 122.932 168.67 120.29 169.959C117.648 171.248 115.335 173.122 113.526 175.439C111.717 177.756 110.46 180.454 109.85 183.33C109.241 186.206 109.294 189.182 110.007 192.034L114.567 210.274C116.119 216.48 119.7 221.988 124.741 225.925C129.783 229.862 135.996 232 142.392 232C148.838 252.853 161.792 271.093 179.356 284.049C196.921 297.006 218.172 303.998 239.998 304C261.824 303.998 283.076 297.006 300.64 284.049C318.205 271.093 331.159 252.853 337.604 232C344.001 232 350.214 229.862 355.255 225.925C360.297 221.988 363.878 216.48 365.429 210.274L369.989 192.034C370.702 189.182 370.756 186.206 370.146 183.33C369.537 180.454 368.28 177.756 366.471 175.439C364.662 173.122 362.348 171.248 359.707 169.959C357.065 168.67 354.164 168 351.224 168V168Z" fill="#FFE7DE"/>
<path d="M178.152 283.124C195.922 296.676 217.654 304.011 240.001 304V304C261.827 303.998 283.079 297.006 300.643 284.05C318.208 271.093 331.162 252.853 337.607 232C344.004 232 350.217 229.862 355.258 225.925C360.3 221.989 363.881 216.48 365.432 210.274L369.992 192.034C370.705 189.183 370.759 186.206 370.149 183.331C369.54 180.455 368.283 177.756 366.474 175.439C364.665 173.122 362.351 171.248 359.71 169.959C357.068 168.67 354.167 168 351.227 168L352.866 160H352.001C352.001 145.635 349.129 134.143 344.54 124.938C334.028 164.053 312.935 199.512 283.581 227.419C254.227 255.326 217.748 274.601 178.152 283.124V283.124Z" fill="#F9D8CD"/>
<path d="M304.893 27.5C296.583 52.0645 281.43 73.7443 261.217 89.9884C241.003 106.232 216.57 116.365 190.793 119.193L196.03 122.684C209.051 131.365 224.35 135.997 239.999 135.997C255.648 135.997 270.947 131.365 283.968 122.684L312.001 104C312.001 104 346.582 109.769 357.037 135.978C358.929 114.875 355.083 93.6538 345.904 74.5581C336.725 55.4625 322.555 39.203 304.893 27.5V27.5Z" fill="#3F3F3F"/>
<path d="M488 376H328C319.163 376 312 383.163 312 392V488C312 496.837 319.163 504 328 504H488C496.837 504 504 496.837 504 488V392C504 383.163 496.837 376 488 376Z" fill="#FFD400"/>
<path d="M456 376V336C456 323.27 450.943 311.061 441.941 302.059C432.939 293.057 420.73 288 408 288C395.27 288 383.061 293.057 374.059 302.059C365.057 311.061 360 323.27 360 336V376H328V336C328 314.783 336.429 294.434 351.431 279.431C366.434 264.429 386.783 256 408 256C429.217 256 449.566 264.429 464.569 279.431C479.571 294.434 488 314.783 488 336V376H456Z" fill="#EDEDED"/>
<path d="M408 448C419.046 448 428 439.046 428 428C428 416.954 419.046 408 408 408C396.954 408 388 416.954 388 428C388 439.046 396.954 448 408 448Z" fill="#FF7816"/>
<path d="M72 440C69.8783 440 67.8434 440.843 66.3431 442.343C64.8429 443.843 64 445.878 64 448V504C64 506.122 64.8429 508.157 66.3431 509.657C67.8434 511.157 69.8783 512 72 512C74.1217 512 76.1566 511.157 77.6569 509.657C79.1571 508.157 80 506.122 80 504V448C80 445.878 79.1571 443.843 77.6569 442.343C76.1566 440.843 74.1217 440 72 440Z" fill="#4B4A4A"/>
<path d="M168.07 40.5606C169.878 40.5597 171.633 39.9464 173.047 38.8208C174.462 37.6951 175.454 36.1235 175.861 34.362C176.268 32.6005 176.067 30.753 175.289 29.1208C174.512 27.4885 173.204 26.1677 171.58 25.3736C169.956 24.5795 168.111 24.3589 166.345 24.7479C164.58 25.1369 162.998 26.1124 161.858 27.5155C160.718 28.9186 160.086 30.6665 160.067 32.4743C160.047 34.2821 160.641 36.0432 161.75 37.4706C162.494 38.4383 163.452 39.2208 164.548 39.7568C165.644 40.2929 166.85 40.568 168.07 40.5606V40.5606Z" fill="#4B4A4A"/>
<path d="M327.35 268.96C334.218 260.034 339.672 250.105 343.52 239.52C350.595 238.371 357.177 235.17 362.451 230.316C367.725 225.461 371.458 219.166 373.189 212.21L377.75 193.97C378.889 189.426 378.839 184.664 377.606 180.144C376.374 175.624 373.999 171.497 370.71 168.16C367.889 165.287 364.467 163.074 360.689 161.68L362.939 150.68C363.867 146.133 364.547 141.538 364.975 136.916C364.975 136.901 364.975 136.885 364.975 136.87C365.336 132.99 365.526 129.106 365.526 125.24C365.542 108.729 362.254 92.3813 355.855 77.1603C346.34 54.283 330.254 34.7413 309.632 21.0069C289.009 7.27236 264.777 -0.0380187 240 0.000280644H239.98C223.759 -0.0341 207.687 3.09073 192.66 9.20028C190.705 10.0073 189.15 11.5553 188.333 13.5059C187.517 15.4566 187.506 17.6512 188.303 19.6099C189.1 21.5686 190.64 23.1321 192.586 23.9586C194.533 24.785 196.727 24.8072 198.69 24.0203C214.276 17.698 231.107 15.0453 247.882 16.2673C264.657 17.4894 280.926 22.5534 295.431 31.0677C309.936 39.582 322.288 51.3186 331.533 65.3696C340.777 79.4207 346.666 95.4097 348.743 112.1C333.431 99.6303 314.438 96.2923 313.314 96.1003L310.194 95.5813L279.532 116.026C267.824 123.829 254.069 127.992 240 127.992C225.931 127.992 212.176 123.829 200.468 116.026L169.806 95.5893L166.686 96.1083C165.563 96.2963 146.57 99.6343 131.258 112.108C133.555 93.2497 140.761 75.3243 152.158 60.1243C153.422 58.422 153.959 56.288 153.651 54.1902C153.344 52.0925 152.217 50.2023 150.518 48.9343C149.143 47.8994 147.469 47.3412 145.748 47.3443C144.502 47.3475 143.273 47.6399 142.159 48.1987C141.045 48.7575 140.076 49.5673 139.328 50.5643C131.429 61.1526 125.25 72.9206 121.018 85.4343C116.672 98.2569 114.456 111.705 114.458 125.244C114.469 133.79 115.34 142.313 117.058 150.684L119.308 161.684C115.528 163.072 112.105 165.286 109.288 168.164C106.829 170.66 104.871 173.603 103.518 176.834C102.131 180.151 101.417 183.71 101.418 187.304C101.42 189.553 101.699 191.793 102.248 193.974L106.808 212.214C108.539 219.17 112.273 225.465 117.547 230.32C122.82 235.174 129.403 238.375 136.478 239.524C144.095 260.443 157.875 278.561 176 291.488V322.646C176 324.52 175.343 326.334 174.142 327.773C172.942 329.212 171.274 330.183 169.431 330.518L65.689 349.38C47.2528 352.725 30.5765 362.437 18.5708 376.823C6.56513 391.208 -0.00752855 409.353 6.47151e-06 428.09V504C6.47151e-06 506.122 0.842861 508.157 2.34315 509.657C3.84344 511.157 5.87827 512 8.00001 512C10.1217 512 12.1566 511.157 13.6569 509.657C15.1572 508.157 16 506.122 16 504V428.09C15.994 413.101 21.2522 398.585 30.8567 387.077C40.4612 375.568 53.8021 367.798 68.551 365.122L160.968 348.322C163.902 367.176 173.48 384.36 187.973 396.771C202.466 409.182 220.919 416.002 240 416C242.122 416 244.157 415.157 245.657 413.657C247.157 412.157 248 410.122 248 408C248 405.879 247.157 403.844 245.657 402.343C244.157 400.843 242.122 400 240 400C224.591 400 209.7 394.44 198.061 384.341C186.422 374.243 178.817 360.285 176.643 345.03C181.164 343.287 185.052 340.216 187.793 336.22C190.534 332.224 192.001 327.492 192 322.646V300.982C214.802 312.025 240.714 314.869 265.368 309.036C290.023 303.203 311.913 289.049 327.35 268.96V268.96ZM240.02 296H239.98C219.847 296.076 200.226 289.662 184.025 277.709C167.824 265.755 155.907 248.9 150.04 229.64L148.31 224.03L142.39 224C137.776 224.007 133.293 222.467 129.656 219.626C126.02 216.786 123.441 212.809 122.33 208.33L117.77 190.09C117.288 188.203 117.304 186.222 117.818 184.343C118.331 182.464 119.325 180.75 120.7 179.37C121.751 178.297 123.007 177.445 124.393 176.866C125.779 176.288 127.268 175.993 128.77 176H138.58L132.73 147.46C132.038 144.076 131.512 140.66 131.137 137.24C138.788 120.901 158.848 114.44 166.393 112.54L191.593 129.34C205.929 138.895 222.772 143.994 240.001 143.994C257.23 143.994 274.073 138.895 288.409 129.34L313.609 112.54C321.169 114.44 341.215 120.904 348.866 137.234C348.491 140.656 347.966 144.074 347.273 147.466L341.433 175.935L341.423 175.996H351.232C352.734 175.99 354.223 176.285 355.609 176.864C356.995 177.443 358.251 178.294 359.303 179.366C360.679 180.748 361.672 182.463 362.186 184.344C362.699 186.225 362.715 188.207 362.232 190.096L357.673 208.326C356.563 212.806 353.983 216.785 350.346 219.626C346.709 222.468 342.224 224.008 337.609 224H331.74L329.96 229.64C324.093 248.899 312.175 265.755 295.975 277.708C279.774 289.662 260.153 296.076 240.02 296V296Z" fill="#4B4A4A"/>
<path d="M496 369.376V336C496.007 324.442 493.736 312.995 489.316 302.315C484.896 291.635 478.415 281.931 470.242 273.759C462.069 265.586 452.365 259.104 441.685 254.684C431.005 250.264 419.558 247.993 408 248C400.924 247.998 393.874 248.844 387 250.52C385.101 250.985 383.438 252.13 382.326 253.738C381.213 255.346 380.728 257.306 380.962 259.247C381.196 261.188 382.133 262.977 383.595 264.274C385.058 265.572 386.945 266.289 388.9 266.29C389.544 266.293 390.186 266.216 390.811 266.06C401.415 263.459 412.47 263.303 423.143 265.603C433.816 267.903 443.827 272.598 452.418 279.336C461.009 286.073 467.956 294.675 472.735 304.491C477.513 314.308 479.998 325.082 480 336V368H464V336C464 321.148 458.1 306.904 447.598 296.402C437.096 285.9 422.852 280 408 280C393.148 280 378.904 285.9 368.402 296.402C357.9 306.904 352 321.148 352 336V368H336V336C335.994 323.203 339.397 310.636 345.859 299.59C346.428 298.683 346.81 297.672 346.981 296.615C347.153 295.558 347.11 294.478 346.856 293.438C346.602 292.398 346.142 291.419 345.503 290.56C344.864 289.701 344.059 288.979 343.136 288.437C342.213 287.895 341.19 287.543 340.129 287.404C339.068 287.264 337.989 287.338 336.957 287.623C335.925 287.908 334.961 288.397 334.121 289.061C333.281 289.725 332.584 290.551 332.069 291.49C324.158 304.989 319.992 320.354 320 336V369.376C315.324 371.035 311.277 374.1 308.412 378.151C305.548 382.201 304.006 387.039 304 392V488C304.007 494.363 306.538 500.463 311.038 504.962C315.537 509.462 321.637 511.993 328 512H488C494.363 511.993 500.463 509.462 504.962 504.962C509.462 500.463 511.993 494.363 512 488V392C511.994 387.039 510.452 382.201 507.588 378.151C504.723 374.1 500.676 371.035 496 369.376V369.376ZM368 336C368 325.391 372.214 315.217 379.716 307.716C387.217 300.214 397.391 296 408 296C418.609 296 428.783 300.214 436.284 307.716C443.786 315.217 448 325.391 448 336V368H368V336ZM496 488C495.998 490.121 495.154 492.154 493.654 493.654C492.154 495.154 490.121 495.998 488 496H328C325.879 495.998 323.846 495.154 322.346 493.654C320.846 492.154 320.002 490.121 320 488V392C320.002 389.879 320.846 387.846 322.346 386.346C323.846 384.846 325.879 384.002 328 384H488C490.121 384.002 492.154 384.846 493.654 386.346C495.154 387.846 495.998 389.879 496 392V488Z" fill="#4B4A4A"/>
<path d="M360.159 263.87C358.358 263.873 356.611 264.484 355.2 265.603C353.789 266.722 352.797 268.285 352.384 270.038C351.972 271.792 352.163 273.633 352.927 275.264C353.691 276.895 354.983 278.22 356.594 279.026C358.205 279.831 360.041 280.069 361.804 279.702C363.567 279.335 365.155 278.383 366.31 277.001C367.465 275.619 368.12 273.888 368.169 272.087C368.218 270.287 367.658 268.523 366.579 267.08C365.837 266.078 364.868 265.266 363.753 264.708C362.638 264.15 361.406 263.863 360.159 263.87Z" fill="#4B4A4A"/>
<path d="M407.999 400C401.276 400.003 394.778 402.425 389.693 406.824C384.608 411.223 381.276 417.304 380.305 423.957C379.334 430.61 380.79 437.391 384.406 443.059C388.022 448.727 393.557 452.905 399.999 454.829V472C399.999 474.122 400.842 476.157 402.342 477.657C403.842 479.157 405.877 480 407.999 480C410.121 480 412.156 479.157 413.656 477.657C415.156 476.157 415.999 474.122 415.999 472V454.829C422.441 452.905 427.976 448.727 431.592 443.059C435.208 437.391 436.664 430.61 435.693 423.957C434.722 417.304 431.39 411.223 426.305 406.824C421.22 402.425 414.722 400.003 407.999 400ZM407.999 440C405.626 440 403.306 439.296 401.332 437.978C399.359 436.659 397.821 434.785 396.912 432.592C396.004 430.399 395.767 427.987 396.23 425.659C396.693 423.331 397.835 421.193 399.514 419.515C401.192 417.836 403.33 416.694 405.658 416.231C407.986 415.768 410.398 416.005 412.591 416.913C414.784 417.822 416.658 419.36 417.977 421.333C419.295 423.307 419.999 425.627 419.999 428C419.996 431.182 418.73 434.232 416.48 436.481C414.231 438.731 411.181 439.997 407.999 440Z" fill="#4B4A4A"/>
</g>
<defs>
<clipPath id="clip0">
<rect width="512" height="512" fill="white"/>
</clipPath>
</defs>
</svg>
