<svg width="512" height="512" viewBox="0 0 512 512" fill="none" xmlns="http://www.w3.org/2000/svg">
<path d="M256.002 64C222.301 63.9905 189.192 72.8583 160.007 89.711C130.822 106.564 106.592 130.807 89.7539 160H172.874C189.482 102.624 220.474 64 256.002 64Z" fill="#FF9100"/>
<path d="M339.128 160H422.248C405.41 130.807 381.179 106.564 351.995 89.711C322.81 72.8583 289.701 63.9905 256 64C291.528 64 322.52 102.624 339.128 160Z" fill="#FFEC8F"/>
<path d="M172.872 160H89.7521C72.8461 189.166 63.9612 222.288 64.0001 256H160C159.806 223.557 164.139 191.246 172.872 160V160Z" fill="#FF7816"/>
<path d="M339.129 160C347.862 191.246 352.195 223.557 352.001 256H448.001C448.04 222.288 439.155 189.166 422.249 160H339.129Z" fill="#FFD400"/>
<path d="M172.874 352H89.7539C106.592 381.193 130.822 405.436 160.007 422.289C189.192 439.142 222.301 448.01 256.002 448C220.474 448 189.482 409.376 172.874 352Z" fill="#C55C10"/>
<path d="M160 256H64.0001C63.9612 289.712 72.8461 322.834 89.7521 352H172.872C164.139 320.754 159.806 288.443 160 256V256Z" fill="#E66C14"/>
<path d="M422.249 352C439.155 322.834 448.04 289.712 448.001 256H352.001C352.195 288.443 347.862 320.754 339.129 352H422.249Z" fill="#FDBF00"/>
<path d="M339.128 352C322.52 409.376 291.528 448 256 448C289.701 448.01 322.81 439.142 351.995 422.289C381.179 405.436 405.41 381.193 422.248 352H339.128Z" fill="#FF9100"/>
<path d="M339.128 160C322.52 102.624 291.528 64 256 64V160H339.128Z" fill="#FDE25D"/>
<path d="M255.999 64C220.471 64 189.479 102.624 172.871 160H255.999V64Z" fill="#FDBF00"/>
<path d="M255.998 160H172.87C164.137 191.246 159.804 223.557 159.998 256H255.998V160Z" fill="#FF9100"/>
<path d="M256 256H352C352.194 223.557 347.862 191.246 339.128 160H256V256Z" fill="#FDBF00"/>
<path d="M172.871 352C189.479 409.376 220.471 448 255.999 448V352H172.871Z" fill="#E66C14"/>
<path d="M256 448C291.528 448 322.52 409.376 339.128 352H256V448Z" fill="#FF7816"/>
<path d="M256 256V352H339.128C347.862 320.754 352.194 288.443 352 256H256Z" fill="#FF9100"/>
<path d="M255.998 256H159.998C159.804 288.443 164.137 320.754 172.87 352H255.998V256Z" fill="#FF7816"/>
<path d="M474.961 208.528C476.049 213.568 476.977 218.744 477.721 223.912C477.994 225.816 478.944 227.558 480.397 228.819C481.851 230.08 483.709 230.774 485.633 230.776C486.019 230.774 486.404 230.745 486.785 230.688C487.831 230.543 488.838 230.192 489.748 229.656C490.658 229.12 491.452 228.409 492.086 227.564C492.72 226.719 493.18 225.757 493.44 224.733C493.7 223.71 493.755 222.645 493.601 221.6C492.801 216.064 491.809 210.52 490.641 205.128C490.17 203.078 488.912 201.296 487.137 200.168C485.363 199.039 483.215 198.655 481.16 199.097C479.104 199.54 477.305 200.774 476.152 202.533C475 204.292 474.586 206.434 475.001 208.496L474.961 208.528Z" fill="#525252"/>
<path d="M100.344 92.0004C102.328 91.9994 104.242 91.2609 105.712 89.9284C109.536 86.4644 113.552 83.0724 117.648 79.8564C118.479 79.2072 119.174 78.4006 119.693 77.4827C120.213 76.5649 120.546 75.5537 120.674 74.507C120.803 73.4603 120.724 72.3986 120.442 71.3824C120.16 70.3662 119.681 69.4154 119.032 68.5844C118.383 67.7534 117.576 67.0584 116.658 66.5391C115.74 66.0198 114.729 65.6864 113.683 65.5579C112.636 65.4294 111.574 65.5083 110.558 65.7901C109.542 66.0719 108.591 66.5511 107.76 67.2004C103.368 70.6484 99.064 74.2884 94.96 78.0004C93.7625 79.0856 92.9217 80.5081 92.5484 82.0805C92.1751 83.6529 92.2868 85.3015 92.8687 86.8091C93.4506 88.3168 94.4756 89.6129 95.8085 90.5267C97.1415 91.4405 98.7199 91.9292 100.336 91.9284L100.344 92.0004Z" fill="#525252"/>
<path d="M27.2815 216.096C27.8239 216.207 28.3759 216.263 28.9295 216.264C30.771 216.261 32.555 215.622 33.9804 214.456C35.4057 213.29 36.3852 211.668 36.7535 209.864C37.8095 204.816 39.0575 199.712 40.4815 194.664C40.928 192.662 40.5882 190.564 39.5323 188.805C38.4764 187.046 36.7851 185.76 34.808 185.213C32.8309 184.666 30.719 184.899 28.9088 185.864C27.0987 186.829 25.7285 188.453 25.0815 190.4C23.5615 195.776 22.2175 201.248 21.0815 206.656C20.6557 208.73 21.0691 210.887 22.2312 212.657C23.3933 214.426 25.2094 215.663 27.2815 216.096V216.096Z" fill="#525252"/>
<path d="M139.466 63.3519C140.871 63.347 142.251 62.9717 143.466 62.2639C147.946 59.6559 152.578 57.1679 157.21 54.8879C158.156 54.4269 159.003 53.7836 159.7 52.9948C160.398 52.206 160.933 51.2872 161.274 50.2912C161.616 49.2952 161.758 48.2415 161.691 47.1907C161.625 46.1398 161.352 45.1123 160.887 44.1673C160.423 43.2222 159.777 42.3782 158.985 41.6834C158.194 40.9887 157.273 40.4571 156.276 40.119C155.279 39.7808 154.225 39.6429 153.174 39.7131C152.123 39.7833 151.097 40.0602 150.154 40.5279C145.178 42.9759 140.218 45.6399 135.41 48.4399C133.893 49.324 132.708 50.6827 132.04 52.3064C131.371 53.9301 131.256 55.7286 131.711 57.4246C132.166 59.1206 133.166 60.6198 134.557 61.691C135.949 62.7621 137.654 63.3458 139.41 63.3519H139.466Z" fill="#525252"/>
<path d="M68.0013 128.064C69.267 128.066 70.515 127.768 71.6429 127.193C72.7708 126.619 73.7463 125.785 74.4893 124.76C77.5373 120.544 80.7693 116.392 84.0893 112.416C85.4493 110.785 86.1055 108.68 85.9134 106.564C85.7214 104.449 84.6969 102.496 83.0653 101.136C81.4337 99.7763 79.3286 99.1201 77.2132 99.3121C75.0978 99.5042 73.1453 100.529 71.7853 102.16C68.2253 106.416 64.7693 110.864 61.4973 115.376C60.8769 116.228 60.4311 117.195 60.1853 118.22C59.9396 119.245 59.8988 120.308 60.0653 121.349C60.2318 122.39 60.6024 123.387 61.1557 124.284C61.7089 125.181 62.434 125.96 63.2893 126.576C64.6608 127.563 66.312 128.084 68.0013 128.064V128.064Z" fill="#525252"/>
<path d="M40.5423 169.416C41.561 169.874 42.6652 170.111 43.7823 170.112C45.3355 170.108 46.8539 169.652 48.1524 168.8C49.4508 167.947 50.473 166.735 51.0943 165.312C53.1903 160.592 55.4943 155.856 57.9343 151.248C58.9273 149.372 59.1345 147.179 58.5103 145.151C57.8862 143.122 56.4819 141.425 54.6063 140.432C52.7307 139.439 50.5374 139.232 48.509 139.856C46.4806 140.48 44.7832 141.884 43.7903 143.76C41.1743 148.696 38.7183 153.768 36.4703 158.832C36.0401 159.794 35.8043 160.831 35.7763 161.885C35.7482 162.938 35.9286 163.987 36.307 164.97C36.6853 165.953 37.2543 166.853 37.9811 167.615C38.7079 168.378 39.5783 168.99 40.5423 169.416Z" fill="#525252"/>
<path d="M445.553 136.608C446.684 138.405 448.482 139.68 450.552 140.151C452.623 140.622 454.796 140.251 456.593 139.12C458.39 137.989 459.664 136.191 460.135 134.121C460.606 132.05 460.236 129.877 459.105 128.08C456.153 123.4 452.977 118.744 449.681 114.24C449.081 113.34 448.305 112.571 447.4 111.98C446.494 111.388 445.479 110.986 444.413 110.798C443.348 110.611 442.256 110.641 441.203 110.887C440.15 111.133 439.158 111.59 438.286 112.23C437.415 112.87 436.682 113.681 436.133 114.612C435.583 115.544 435.229 116.577 435.09 117.649C434.951 118.722 435.031 119.811 435.325 120.852C435.619 121.893 436.121 122.863 436.801 123.704C439.857 127.904 442.817 132.24 445.553 136.608V136.608Z" fill="#525252"/>
<path d="M416.6 99.8488C417.329 100.614 418.203 101.228 419.171 101.654C420.139 102.079 421.181 102.309 422.238 102.329C423.296 102.35 424.346 102.16 425.33 101.772C426.313 101.383 427.21 100.804 427.968 100.067C428.726 99.33 429.331 98.45 429.747 97.4778C430.163 96.5057 430.382 95.4608 430.392 94.4035C430.401 93.3461 430.201 92.2974 429.803 91.3179C429.405 90.3383 428.816 89.4475 428.072 88.6968C424.216 84.6968 420.16 80.8328 415.992 77.1048C414.408 75.7127 412.338 75.0025 410.233 75.1286C408.128 75.2547 406.157 76.2069 404.751 77.778C403.344 79.3492 402.615 81.4123 402.721 83.5185C402.828 85.6247 403.762 87.6036 405.32 89.0248C409.208 92.5048 413 96.1528 416.6 99.8488V99.8488Z" fill="#525252"/>
<path d="M36.9356 303.008C35.8556 297.976 34.9436 292.8 34.2076 287.632C34.0721 286.582 33.7293 285.569 33.1992 284.652C32.6692 283.735 31.9623 282.933 31.1196 282.291C30.277 281.65 29.3153 281.182 28.2905 280.915C27.2656 280.648 26.1979 280.587 25.1493 280.736C24.1008 280.884 23.0922 281.24 22.1821 281.782C21.272 282.323 20.4785 283.04 19.8476 283.891C19.2167 284.742 18.7611 285.709 18.507 286.737C18.253 287.765 18.2056 288.834 18.3676 289.88C19.1676 295.416 20.1356 300.96 21.2876 306.352C21.6701 308.142 22.6547 309.746 24.077 310.898C25.4994 312.05 27.2736 312.679 29.1036 312.68C29.6685 312.685 30.2321 312.626 30.7836 312.504C31.8111 312.285 32.7854 311.865 33.6506 311.269C34.5159 310.673 35.2553 309.912 35.8266 309.031C36.3978 308.149 36.7898 307.163 36.9801 306.13C37.1704 305.097 37.1553 304.036 36.9356 303.008V303.008Z" fill="#525252"/>
<path d="M367.369 61.6005C371.865 64.1765 376.329 66.9605 380.641 69.8485C381.513 70.4368 382.493 70.8476 383.523 71.0575C384.554 71.2673 385.616 71.2721 386.649 71.0715C387.681 70.8709 388.664 70.4689 389.542 69.8885C390.419 69.308 391.173 68.5605 391.761 67.6885C392.35 66.8165 392.761 65.8372 392.97 64.8064C393.18 63.7757 393.185 62.7137 392.984 61.6811C392.784 60.6485 392.382 59.6656 391.801 58.7883C391.221 57.9111 390.473 57.1568 389.601 56.5685C384.977 53.4725 380.201 50.4965 375.377 47.7685C373.537 46.7076 371.35 46.4214 369.299 46.9727C367.247 47.5241 365.498 48.8679 364.437 50.7085C363.377 52.5491 363.09 54.7357 363.642 56.7874C364.193 58.839 365.537 60.5876 367.377 61.6485L367.369 61.6005Z" fill="#525252"/>
<path d="M460.346 164.104C462.466 168.8 464.45 173.664 466.258 178.552C466.602 179.563 467.146 180.495 467.856 181.293C468.566 182.091 469.429 182.738 470.394 183.197C471.359 183.656 472.405 183.917 473.472 183.965C474.54 184.012 475.605 183.846 476.607 183.475C477.609 183.104 478.526 182.537 479.305 181.806C480.084 181.075 480.709 180.195 481.142 179.219C481.576 178.242 481.809 177.189 481.829 176.121C481.849 175.053 481.655 173.992 481.258 173C479.33 167.768 477.194 162.6 474.938 157.536C474.506 156.578 473.891 155.714 473.126 154.994C472.36 154.274 471.461 153.712 470.479 153.339C469.496 152.967 468.45 152.791 467.4 152.823C466.349 152.855 465.316 153.093 464.358 153.524C463.4 153.956 462.536 154.571 461.816 155.336C461.095 156.102 460.533 157.001 460.16 157.983C459.788 158.966 459.613 160.012 459.644 161.062C459.676 162.113 459.914 163.146 460.346 164.104V164.104Z" fill="#525252"/>
<path d="M278.735 33.1359C283.863 33.6559 289.071 34.3599 294.207 35.2399C295.25 35.435 296.321 35.4207 297.358 35.198C298.395 34.9753 299.378 34.5486 300.249 33.9427C301.119 33.3367 301.861 32.5637 302.43 31.6685C302.999 30.7734 303.384 29.774 303.564 28.7285C303.743 27.683 303.712 26.6123 303.474 25.5786C303.236 24.545 302.794 23.5691 302.175 22.7077C301.556 21.8463 300.772 21.1166 299.868 20.5611C298.965 20.0056 297.96 19.6353 296.911 19.4719C291.415 18.5279 285.831 17.7679 280.327 17.2159C279.282 17.1108 278.226 17.2127 277.22 17.5157C276.214 17.8186 275.278 18.3168 274.465 18.9816C273.651 19.6465 272.977 20.4651 272.48 21.3906C271.982 22.3162 271.673 23.3306 271.567 24.3759C271.462 25.4212 271.564 26.477 271.867 27.4829C272.17 28.4889 272.668 29.4253 273.333 30.2388C273.998 31.0522 274.817 31.7267 275.742 32.2238C276.668 32.7209 277.682 33.0308 278.727 33.1359H278.735Z" fill="#525252"/>
<path d="M231.04 33.3283C231.329 33.3283 231.617 33.3123 231.904 33.2803C237.096 32.7203 242.304 32.3443 247.48 32.1683C248.531 32.1322 249.566 31.889 250.523 31.4527C251.48 31.0164 252.342 30.3956 253.059 29.6257C253.776 28.8559 254.335 27.9521 254.702 26.9663C255.069 25.9804 255.239 24.9317 255.2 23.8803C255.1 21.7682 254.178 19.7788 252.631 18.3377C251.084 16.8965 249.034 16.1179 246.92 16.1683C241.4 16.3683 235.784 16.7763 230.216 17.3683C228.094 17.4797 226.104 18.4294 224.682 20.0085C223.261 21.5875 222.525 23.6666 222.636 25.7883C222.747 27.9101 223.697 29.9006 225.276 31.3222C226.855 32.7437 228.934 33.4797 231.056 33.3683L231.04 33.3283Z" fill="#525252"/>
<path d="M324.536 42.6719C329.496 44.2719 334.456 46.0479 339.256 47.9759C340.235 48.3925 341.288 48.6093 342.353 48.6137C343.417 48.6181 344.472 48.41 345.455 48.0016C346.438 47.5932 347.33 46.9926 348.078 46.2352C348.826 45.4777 349.416 44.5786 349.812 43.5904C350.208 42.6023 350.403 41.5451 350.385 40.4806C350.367 39.4162 350.137 38.366 349.708 37.3916C349.28 36.4172 348.661 35.5382 347.888 34.8061C347.115 34.0739 346.204 33.5034 345.208 33.1279C340.056 31.0559 334.744 29.1279 329.432 27.4399C327.459 26.9375 325.369 27.2059 323.587 28.1906C321.806 29.1752 320.466 30.802 319.842 32.7397C319.218 34.6773 319.356 36.7799 320.228 38.6193C321.1 40.4588 322.641 41.8966 324.536 42.6399V42.6719Z" fill="#525252"/>
<path d="M183.663 43.5048C184.511 43.501 185.353 43.3661 186.159 43.1048C191.055 41.5048 196.103 40.0328 201.167 38.7608C203.225 38.242 204.993 36.9269 206.081 35.1048C207.17 33.2827 207.49 31.1029 206.971 29.0448C206.452 26.9867 205.137 25.219 203.315 24.1305C201.493 23.0421 199.313 22.722 197.255 23.2408C191.831 24.6088 186.423 26.1768 181.167 27.8968C179.354 28.4863 177.811 29.704 176.816 31.3305C175.821 32.957 175.44 34.8854 175.741 36.7681C176.042 38.6508 177.006 40.3641 178.458 41.5993C179.911 42.8344 181.757 43.5102 183.663 43.5048V43.5048Z" fill="#525252"/>
<path d="M32 256.001C32 250.902 32.168 245.851 32.504 240.849C32.6445 238.733 31.9388 236.647 30.5422 235.051C29.1455 233.455 27.1722 232.479 25.056 232.337C24.0054 232.251 22.9482 232.376 21.947 232.706C20.9458 233.036 20.021 233.564 19.2273 234.257C18.4336 234.951 17.7871 235.797 17.3262 236.745C16.8653 237.693 16.5993 238.724 16.544 239.777C16.184 245.137 16 250.593 16 255.777V256.457C16.005 257.494 16.2171 258.521 16.624 259.475C17.0309 260.43 17.6244 261.293 18.3696 262.015C19.1147 262.738 19.9966 263.303 20.9635 263.68C21.9304 264.057 22.9627 264.237 24 264.209C26.1406 264.155 28.1753 263.266 29.6699 261.732C31.1645 260.199 32.0007 258.142 32 256.001V256.001Z" fill="#525252"/>
<path d="M325.4 469.04C320.44 470.64 315.384 472.104 310.392 473.344C309.366 473.591 308.399 474.039 307.547 474.662C306.695 475.284 305.974 476.069 305.427 476.971C304.879 477.873 304.515 478.875 304.357 479.918C304.198 480.961 304.247 482.026 304.501 483.05C304.756 484.074 305.21 485.038 305.839 485.885C306.467 486.733 307.257 487.448 308.163 487.989C309.069 488.531 310.073 488.887 311.117 489.039C312.161 489.19 313.225 489.134 314.248 488.872C319.608 487.544 325.032 485.992 330.352 484.256C331.39 483.965 332.359 483.467 333.2 482.791C334.041 482.116 334.736 481.278 335.245 480.327C335.753 479.376 336.064 478.332 336.159 477.258C336.254 476.183 336.131 475.101 335.797 474.076C335.463 473.05 334.925 472.103 334.215 471.291C333.506 470.479 332.64 469.818 331.668 469.349C330.697 468.88 329.641 468.613 328.564 468.562C327.487 468.512 326.411 468.68 325.4 469.056V469.04Z" fill="#525252"/>
<path d="M405.944 422.4C402.088 425.88 398.056 429.264 393.944 432.464C393.077 433.097 392.345 433.897 391.793 434.818C391.242 435.739 390.881 436.762 390.733 437.825C390.585 438.889 390.652 439.971 390.931 441.008C391.21 442.045 391.695 443.015 392.357 443.86C393.018 444.706 393.843 445.409 394.783 445.929C395.722 446.449 396.757 446.774 397.825 446.886C398.892 446.998 399.972 446.893 400.998 446.579C402.025 446.264 402.978 445.747 403.8 445.056C408.176 441.632 412.488 438.008 416.6 434.296C418.033 432.847 418.859 430.906 418.91 428.868C418.96 426.831 418.231 424.851 416.871 423.333C415.511 421.815 413.623 420.873 411.593 420.7C409.562 420.527 407.542 421.135 405.944 422.4Z" fill="#525252"/>
<path d="M368.129 449.968C363.633 452.568 359.001 455.04 354.353 457.32C352.721 458.111 351.405 459.432 350.623 461.068C349.84 462.705 349.637 464.558 350.046 466.325C350.455 468.092 351.453 469.667 352.875 470.793C354.297 471.919 356.059 472.528 357.873 472.52C359.09 472.528 360.292 472.254 361.385 471.72C366.369 469.32 371.329 466.64 376.145 463.856C377.914 462.762 379.187 461.022 379.694 459.004C380.202 456.987 379.904 454.852 378.863 453.051C377.823 451.25 376.122 449.925 374.121 449.357C372.12 448.789 369.976 449.022 368.145 450.008L368.129 449.968Z" fill="#525252"/>
<path d="M437.274 387.624C434.242 391.792 431.002 395.936 427.674 399.952C426.977 400.755 426.448 401.688 426.116 402.697C425.783 403.706 425.656 404.771 425.74 405.831C425.824 406.89 426.118 407.922 426.606 408.866C427.093 409.81 427.763 410.648 428.578 411.33C429.393 412.012 430.335 412.525 431.35 412.839C432.365 413.153 433.432 413.262 434.49 413.159C435.547 413.056 436.574 412.744 437.509 412.24C438.444 411.736 439.27 411.051 439.938 410.224C443.53 405.928 447.002 401.496 450.242 397.032C450.89 396.185 451.362 395.216 451.63 394.184C451.899 393.151 451.958 392.075 451.804 391.02C451.65 389.964 451.287 388.95 450.736 388.036C450.184 387.123 449.456 386.329 448.593 385.702C447.73 385.074 446.75 384.626 445.712 384.383C444.673 384.139 443.596 384.106 442.544 384.285C441.493 384.465 440.487 384.852 439.588 385.426C438.688 385.999 437.912 386.746 437.306 387.624H437.274Z" fill="#525252"/>
<path d="M488.001 247.032C485.879 247.032 483.844 247.875 482.344 249.375C480.843 250.876 480.001 252.91 480.001 255.032V256C480.001 261.192 479.825 266.456 479.465 271.616C479.392 272.665 479.526 273.717 479.86 274.714C480.194 275.711 480.722 276.632 481.412 277.424C482.102 278.217 482.942 278.866 483.883 279.334C484.824 279.802 485.848 280.08 486.897 280.152H487.457C489.486 280.157 491.442 279.39 492.927 278.007C494.412 276.625 495.317 274.729 495.457 272.704C495.809 267.2 496.001 261.6 496.001 256V255.032C496.001 252.91 495.158 250.876 493.657 249.375C492.157 247.875 490.122 247.032 488.001 247.032Z" fill="#525252"/>
<path d="M484.634 296.384C482.559 295.948 480.396 296.354 478.62 297.512C476.844 298.67 475.6 300.485 475.162 302.56C474.098 307.6 472.834 312.696 471.394 317.76C470.811 319.799 471.062 321.986 472.091 323.84C473.12 325.694 474.843 327.064 476.882 327.648C477.602 327.857 478.348 327.962 479.098 327.96C480.835 327.959 482.525 327.393 483.912 326.346C485.299 325.3 486.308 323.83 486.786 322.16C488.322 316.776 489.674 311.304 490.786 305.896C491.008 304.867 491.025 303.805 490.835 302.77C490.646 301.735 490.255 300.747 489.683 299.863C489.112 298.98 488.372 298.218 487.505 297.621C486.639 297.023 485.663 296.603 484.634 296.384V296.384Z" fill="#525252"/>
<path d="M471.28 343.032C469.342 342.17 467.141 342.113 465.16 342.874C463.18 343.634 461.583 345.15 460.72 347.088C458.616 351.792 456.304 356.52 453.848 361.144C452.853 363.018 452.644 365.21 453.265 367.238C453.886 369.266 455.287 370.965 457.16 371.96C458.312 372.577 459.598 372.899 460.904 372.896C462.357 372.898 463.783 372.505 465.029 371.758C466.274 371.011 467.293 369.939 467.976 368.656C470.608 363.712 473.088 358.648 475.328 353.592C476.191 351.655 476.249 349.455 475.49 347.474C474.731 345.494 473.217 343.897 471.28 343.032V343.032Z" fill="#525252"/>
<path d="M66.1854 374.992C65.0356 373.242 63.2458 372.013 61.2001 371.568C59.1543 371.124 57.0157 371.498 55.2431 372.612C53.4706 373.726 52.2053 375.491 51.7189 377.527C51.2325 379.563 51.5637 381.709 52.6414 383.504C55.5934 388.208 58.7534 392.872 62.0254 397.352C62.6375 398.218 63.4156 398.954 64.3145 399.516C65.2134 400.079 66.2152 400.457 67.2616 400.629C68.3081 400.801 69.3782 400.763 70.4099 400.518C71.4415 400.272 72.4141 399.824 73.271 399.199C74.128 398.575 74.8522 397.786 75.4015 396.879C75.9508 395.972 76.3143 394.965 76.4709 393.916C76.6274 392.867 76.5739 391.797 76.3134 390.77C76.0529 389.742 75.5906 388.776 74.9534 387.928C71.8974 383.736 68.9454 379.384 66.1854 374.992V374.992Z" fill="#525252"/>
<path d="M144.223 450.168C139.743 447.576 135.279 444.792 130.959 441.88C130.087 441.293 129.109 440.883 128.079 440.674C127.049 440.465 125.988 440.46 124.956 440.661C123.925 440.862 122.943 441.264 122.067 441.845C121.191 442.425 120.438 443.172 119.851 444.044C119.263 444.915 118.853 445.894 118.644 446.924C118.435 447.954 118.431 449.015 118.632 450.046C118.833 451.078 119.235 452.059 119.816 452.935C120.396 453.811 121.143 454.565 122.015 455.152C126.647 458.272 131.431 461.256 136.223 464.024C137.133 464.557 138.139 464.906 139.185 465.049C140.23 465.192 141.293 465.126 142.313 464.857C143.333 464.587 144.29 464.118 145.128 463.477C145.966 462.836 146.669 462.036 147.197 461.122C147.724 460.209 148.066 459.2 148.202 458.154C148.338 457.107 148.265 456.045 147.989 455.026C147.713 454.008 147.238 453.055 146.591 452.221C145.945 451.387 145.14 450.689 144.223 450.168Z" fill="#525252"/>
<path d="M95.0733 411.817C93.5942 410.307 91.5781 409.445 89.465 409.417C87.3519 409.389 85.3137 410.198 83.7953 411.668C82.2769 413.138 81.4017 415.149 81.3609 417.261C81.32 419.374 82.1168 421.417 83.5773 422.945C87.4573 426.945 91.5053 430.849 95.6333 434.561C97.2174 435.935 99.2778 436.632 101.371 436.502C103.464 436.373 105.422 435.426 106.825 433.867C108.227 432.307 108.96 430.26 108.868 428.164C108.775 426.069 107.864 424.094 106.329 422.665C102.481 419.201 98.6893 415.545 95.0733 411.817V411.817Z" fill="#525252"/>
<path d="M51.4625 347.472C49.3345 342.736 47.3585 337.872 45.5825 333.016C45.2211 332.029 44.669 331.124 43.9576 330.351C43.2462 329.577 42.3895 328.952 41.4364 328.51C40.4833 328.068 39.4524 327.818 38.4027 327.774C37.353 327.731 36.305 327.894 35.3185 328.256C34.3321 328.617 33.4264 329.169 32.6533 329.881C31.8802 330.592 31.2548 331.449 30.8128 332.402C30.3708 333.355 30.1208 334.386 30.0772 335.436C30.0336 336.485 30.1971 337.533 30.5585 338.52C32.4705 343.72 34.5585 348.92 36.8545 354.008C37.4853 355.419 38.5117 356.618 39.8093 357.458C41.107 358.299 42.6204 358.745 44.1665 358.744C45.5012 358.743 46.8144 358.408 47.9867 357.77C49.159 357.132 50.153 356.211 50.8782 355.091C51.6034 353.97 52.0368 352.686 52.1388 351.356C52.2409 350.025 52.0084 348.69 51.4625 347.472Z" fill="#525252"/>
<path d="M279.633 478.768C274.465 479.312 269.233 479.672 264.057 479.848C261.935 479.883 259.914 480.76 258.438 482.285C256.963 483.81 256.154 485.859 256.189 487.98C256.224 490.102 257.1 492.123 258.625 493.599C260.15 495.074 262.199 495.883 264.321 495.848H264.601C270.145 495.664 275.761 495.272 281.305 494.688C283.403 494.453 285.324 493.397 286.647 491.751C287.971 490.105 288.59 488.003 288.369 485.902C288.148 483.802 287.106 481.874 285.469 480.539C283.833 479.204 281.735 478.57 279.633 478.776V478.768Z" fill="#525252"/>
<path d="M232.798 478.817C227.678 478.289 222.47 477.569 217.318 476.681C215.227 476.319 213.078 476.803 211.344 478.025C209.61 479.248 208.432 481.11 208.07 483.201C207.709 485.292 208.192 487.441 209.415 489.175C210.638 490.909 212.499 492.087 214.59 492.449C220.102 493.401 225.678 494.169 231.166 494.729C231.432 494.759 231.699 494.776 231.966 494.777C234.088 494.883 236.165 494.142 237.74 492.716C239.316 491.291 240.26 489.298 240.366 487.177C240.472 485.055 239.731 482.978 238.306 481.403C236.881 479.827 234.888 478.883 232.766 478.777L232.798 478.817Z" fill="#525252"/>
<path d="M187.014 469.176C182.07 467.576 177.126 465.792 172.31 463.848C171.332 463.437 170.282 463.224 169.221 463.222C168.16 463.22 167.109 463.429 166.13 463.837C165.151 464.245 164.262 464.844 163.516 465.599C162.771 466.354 162.182 467.249 161.786 468.233C161.39 469.218 161.193 470.271 161.208 471.332C161.222 472.393 161.448 473.44 161.871 474.413C162.294 475.386 162.907 476.265 163.673 476.999C164.439 477.733 165.344 478.307 166.334 478.688C171.494 480.768 176.798 482.688 182.094 484.408C182.891 484.663 183.722 484.795 184.558 484.8C186.47 484.808 188.322 484.131 189.778 482.891C191.233 481.651 192.197 479.931 192.494 478.042C192.791 476.154 192.401 474.221 191.396 472.595C190.391 470.968 188.837 469.755 187.014 469.176V469.176Z" fill="#525252"/>
</svg>
